# xmcd
#
# Track frame offsets:
#	150
#	38830
#	65735
#
# Disc length: 1124 seconds
#
# Revision: 0
# Processed by: cddbd v1.4PL0 Copyright (c) Steve Scherf et al.
# Submitted via: EasyCDDAExtractor 4.6.0.1
#
DISCID=24046203
DTITLE=Pink Coffee - Another brick in the wall
DYEAR=2002
DGENRE=
TTITLE0=Another brick in the wall
TTITLE1=Coffee break
TTITLE2=Another brick in the wall
EXTD=
EXTT0=
EXTT1=
EXTT2=
PLAYORDER=
